<?xml version="1.0" standalone="no"?><!DOCTYPE svg PUBLIC "-//W3C//DTD SVG 1.1//EN" "http://www.w3.org/Graphics/SVG/1.1/DTD/svg11.dtd"><svg width="64" height="64" viewBox="0 0 64 64" version="1.1" xmlns="http://www.w3.org/2000/svg" xmlns:xlink="http://www.w3.org/1999/xlink"><defs><style type="text/css"><![CDATA[
@font-face { font-family: ifont; src: url(http://at.alicdn.com/t/font_1442373896_4754455.eot?#iefix) format(embedded-opentype), url(http://at.alicdn.com/t/font_1442373896_4754455.woff) format(woff), url(http://at.alicdn.com/t/font_1442373896_4754455.ttf) format(truetype), url(http://at.alicdn.com/t/font_1442373896_4754455.svg#ifont) format(svg); }

]]></style></defs><g class="transform-group"><g transform="scale(0.0625, 0.0625)"><path d="M507.913259 959.013917c-249.059397 0-450.962913-200.209858-450.962913-447.184809 0-246.973928 201.902492-447.184809 450.962913-447.184809 249.061444 0 450.963936 200.210881 450.963936 447.184809C958.877195 758.804059 756.974703 959.013917 507.913259 959.013917zM507.913259 101.911064c-228.30692 0-413.382499 183.523827-413.382499 409.919067s185.076602 409.919067 413.382499 409.919067c228.307944 0 413.382499-183.52485 413.382499-409.919067S736.22018 101.911064 507.913259 101.911064zM708.36669 531.590174 509.051222 729.23358c-11.000992 10.900258-28.855347 10.900258-39.85634 0-11.010203-10.916631-11.010203-28.621874 0-39.539528l151.936496-150.661372L312.534611 539.03268c-15.561032 0-28.185054-12.519128-28.185054-27.949562 0-15.438621 12.624022-27.949562 28.185054-27.949562l307.090399 0L469.194883 333.963141c-11.010203-10.917654-11.010203-28.612665 0-39.522132 11.000992-10.917654 28.855347-10.917654 39.85634 0l197.14904 195.497533c3.688147 3.057639 6.605712 6.823406 8.3321 11.354606 0.145315 0.372483 0.108475 0.782829 0.237417 1.163499 0.91692 2.756787 1.741739 5.567809 1.741739 8.625448 0 0.054235-0.017397 0.100284-0.017397 0.155543C716.659904 518.589069 714.017619 525.986549 708.36669 531.590174z" fill="#8a4cc1"></path></g></g></svg>