<?xml version="1.0" encoding="utf-8"?>
<!-- Generator: Adobe Illustrator 18.0.0, SVG Export Plug-In . SVG Version: 6.00 Build 0)  -->
<!DOCTYPE svg PUBLIC "-//W3C//DTD SVG 1.1//EN" "http://www.w3.org/Graphics/SVG/1.1/DTD/svg11.dtd">
<svg version="1.1" id="Layer_1" xmlns="http://www.w3.org/2000/svg" xmlns:xlink="http://www.w3.org/1999/xlink" x="0px" y="0px"
	 viewBox="0 0 334 340.8" enable-background="new 0 0 334 340.8" xml:space="preserve">
<g>
	<g>
		<polygon fill="#E1B100" points="211,138 167,138 167,233 325,233 		"/>
		<polygon fill="#F6CB00" points="123,138 9,233 167,233 167,138 		"/>
	</g>
	<g>
		<polygon fill="#D4E0DC" points="90.2,178 90,178 90,340.6 90.5,340.8 167,316 167,155.8 		"/>
		<polygon fill="#E7F0ED" points="14,155.7 14,316.2 90,340.6 90,178 		"/>
	</g>
	<g>
		<polygon fill="#D4E0DC" points="243.2,178 243,178 243,340.6 243.5,340.8 320,316 320,155.8 		"/>
		<polygon fill="#E7F0ED" points="167,155.7 167,316.2 243,340.6 243,178 		"/>
	</g>
	<g>
		<path fill="#EDCBA2" d="M126,34v40.3c-4.5,0.1-8.1,3.7-8.1,8.2c0,4.4,3.6,8,8.1,8.2c0,22.6,18.3,41,40.9,41c0,0,0,0,0.1,0V34H126z
			"/>
		<path fill="#E3BB8D" d="M208.3,74.3c-0.1,0-0.2,0-0.3,0V34h-41v97.7c22.6,0,41-18.4,41.1-41c0.1,0,0.1,0,0.2,0
			c4.6,0,8.4-3.7,8.4-8.2S212.9,74.3,208.3,74.3z"/>
	</g>
	<g>
		<g>
			<path fill="#E1B100" d="M214,57.3V34.7c0-1.2,0.2-2.5,0.2-3.7c0-17.1-21.1-31-47.1-31c0,0-0.1,0-0.1,0v77c0.2,0,0.3,0,0.5,0
				c33.2,0,60.3-5.4,60.3-12C227.8,62.1,222,59.4,214,57.3z"/>
			<path fill="#F6CB00" d="M120,31v26.6c-7.9,2-12.7,4.6-12.7,7.4c0,6.6,26.7,11.9,59.7,12V0C141.1,0,120,13.9,120,31z"/>
		</g>
		<g>
			<path fill="#CC9B00" d="M149,37.2c2.6,0,5-2.1,5-4.7V1.4c-4,0.7-7,1.7-10,3v28.1C144,35.1,146.4,37.2,149,37.2z"/>
			<path fill="#CC9B00" d="M168,37.2c2.6,0,5-2.1,5-4.7V0.2c-2-0.1-3.5-0.2-5.1-0.2c0,0,0,0,0,0c-1.7,0-3.9,0.1-4.9,0.2v32.3
				C163,35.1,165.4,37.2,168,37.2z"/>
			<path fill="#CC9B00" d="M187,37.2c2.6,0,5-2.1,5-4.7V4.3c-4-1.2-7-2.2-10-2.9v31.1C182,35.1,184.4,37.2,187,37.2z"/>
		</g>
	</g>
	<g>
		<path fill="#F6CB00" d="M14,220.1c0,0-14,2.2-14,12.5S0,256,0,256s3,11,14,11V220.1z"/>
		<path fill="#EDCBA2" d="M22,226h30c0,0,5.2,4,0,6h4c0,0,3.6,3,0,7h-4c0,0,3.2,3,0,6h-8c0,0,2,3,0,5H14v-28l2-1v-8c0,0,3-2.8,6,0
			V226z"/>
	</g>
	<g>
		<path fill="#E1B100" d="M320,220.1c0,0,14,2.2,14,12.5s0,23.4,0,23.4s-3,11-14,11V220.1z"/>
		<path fill="#EDCBA2" d="M312,226h-30.4c0,0-5.2,4,0,6h-4c0,0-3.6,3,0,7h4c0,0-3.2,3,0,6h8c0,0-2,3,0,5H320v-28l-2-1v-8
			c0,0-3-2.8-6,0V226z"/>
	</g>
</g>
</svg>
