<svg xmlns="http://www.w3.org/2000/svg" viewBox="0 0 160 160" fill="#a0a0a2"><path d="M80,21.49a25.76,25.76,0,1,0,25.76,25.76A25.76,25.76,0,0,0,80,21.49Zm2.47,12.07-.9,20.2H78.44l-.9-20.2Zm-.4,27.38a3.13,3.13,0,0,1-2.08.79,2.74,2.74,0,0,1-2-.83,2.63,2.63,0,0,1-.87-2,2.52,2.52,0,0,1,.87-2,2.7,2.7,0,0,1,2-.79,2.82,2.82,0,0,1,2.09.79,2.62,2.62,0,0,1,.83,2,2.77,2.77,0,0,1-.83,2.05Z"/><path d="M15.47,96.61a8.89,8.89,0,0,1-2.17-.25,3.2,3.2,0,0,1-1.47-1,.72.72,0,0,0-.53-.35c-.34,0-.88.64-1.65,1.93l-.76-.69a5.5,5.5,0,0,1,2-2.14V89.83h-2v-.92H11.8v5.24a2.39,2.39,0,0,1,.34.32,3.13,3.13,0,0,0,1.08.88,5.05,5.05,0,0,0,1.86.34c.73,0,1.64,0,2.72,0l2,0c.67,0,1.2,0,1.57-.06l-.24,1H17.93ZM12.17,86.44l-.73.71a15.84,15.84,0,0,0-2.34-2.23l.69-.66A17.47,17.47,0,0,1,12.17,86.44Zm2.84-1c.2-.49.39-1,.56-1.54l1,.22c-.15.46-.31.9-.48,1.32H21v.94H15.68a15.65,15.65,0,0,1-1.4,2.51h2.25V87.27h1v1.67h3.05v.92H17.5v1.67h3.67v1H17.5v2.61h-1V92.48H12.65v-1h3.88V89.86H13.29l-.22-.92a11.43,11.43,0,0,0,1.54-2.51H12.76v-.94Z"/><path d="M23.05,96.76l-.21-1c.38,0,.74.06,1.08.06a.49.49,0,0,0,.56-.55V91.85c-.56.22-1.13.43-1.71.62l-.25-1a16.82,16.82,0,0,0,2-.63V87.7H22.77v-1h1.71V84.09h1v2.65h1.16v1H25.52v2.69l1.18-.6v1q-.59.31-1.18.59v4.15a1.09,1.09,0,0,1-1.25,1.22ZM31,90c-.14.38-.29.74-.46,1.09h4.8v1H33.79a5.38,5.38,0,0,1-1.3,2.63c1,.45,1.88.92,2.76,1.43l-.55.81a30.6,30.6,0,0,0-2.93-1.57,11.4,11.4,0,0,1-4.41,1.61L27,96a11.92,11.92,0,0,0,3.75-1.19c-.85-.39-1.76-.77-2.75-1.16.38-.57.71-1.12,1-1.65H27.11V91h2.4c.2-.42.36-.81.52-1.21Zm-.59-1.47h1.37a14.48,14.48,0,0,0,1-2.23l1,.34a13.25,13.25,0,0,1-.88,1.89h2.27v1H27.29v-1h2.14a18.77,18.77,0,0,0-.85-1.68l.83-.39A16.77,16.77,0,0,1,30.4,88.49Zm1.32-3.19h3.14v.92H27.62v-.92H30.7c-.15-.42-.32-.81-.49-1.16L31.26,84C31.41,84.35,31.57,84.8,31.72,85.29ZM30,92c-.25.43-.52.85-.8,1.25q1.22.46,2.35,1A4.39,4.39,0,0,0,32.84,92Z"/><path d="M40.41,84.7a17.77,17.77,0,0,1-.74,1.81H42.5V84.06h1v2.45h4.69v1H43.54v.91a15.39,15.39,0,0,1-.18,1.89h5.79v1H43.93q1,3,5.42,4.71l-.56.88c-3.05-1.32-5-3.1-5.71-5.36a7.6,7.6,0,0,1-1.13,2.39,9.39,9.39,0,0,1-4.76,3L36.63,96a9.21,9.21,0,0,0,4.59-2.83,7.29,7.29,0,0,0,.87-1.92H36.88v-1H42.3a13.19,13.19,0,0,0,.2-1.89v-.91H39.15a9.78,9.78,0,0,1-1.65,2.09l-.85-.74a10.21,10.21,0,0,0,2.83-4.5Z"/><path d="M54.19,86.6v4.27a9.48,9.48,0,0,1-.73,3.88,4.85,4.85,0,0,1-2.27,2.12L50.64,96a4.33,4.33,0,0,0,2.07-1.9,8.55,8.55,0,0,0,.59-3.22V86.6Zm2.13,6.78h-.92V85.54H52.07v7.83h-.92V84.61h5.17Zm.41,2.73-.74.73A14.23,14.23,0,0,0,54,94.43l.66-.64A17.41,17.41,0,0,1,56.72,96.11Zm.42-5.62-.59-.76a11.67,11.67,0,0,0,2-5.74l1,.13c-.11.76-.25,1.46-.41,2.1h4.1v1h-.9a13.45,13.45,0,0,1-1.53,6.25A10.43,10.43,0,0,0,63.46,96l-.55,1a10.68,10.68,0,0,1-2.69-2.56,9.7,9.7,0,0,1-2.63,2.55L57,96a8.67,8.67,0,0,0,2.61-2.54,13,13,0,0,1-1.6-4.34A6.72,6.72,0,0,1,57.14,90.49Zm1.54-2.86a12.55,12.55,0,0,0,1.5,4.88,12.79,12.79,0,0,0,1.19-5.32H58.84C58.78,87.34,58.74,87.49,58.68,87.63Z"/><path d="M67.38,94.22a1.63,1.63,0,0,1,.28,1,2.63,2.63,0,0,1-.55,1.64,2.7,2.7,0,0,1-1.44.91v-.69a1.91,1.91,0,0,0,.88-.62,1.57,1.57,0,0,0,.31-.94.74.74,0,0,1-.31.06.81.81,0,0,1-.6-.25.85.85,0,0,1-.25-.62.81.81,0,0,1,.25-.63.87.87,0,0,1,.66-.24A.92.92,0,0,1,67.38,94.22Z"/><path d="M81.56,88.33v6.15c.42-.39.85-.83,1.33-1.32l.27,1.06a18.86,18.86,0,0,1-2.49,2.17l-.39-.9a.87.87,0,0,0,.32-.64V89.3h-2v-1Zm1.09-2L82,87a15.72,15.72,0,0,0-2.4-2.14l.71-.69A16.34,16.34,0,0,1,82.65,86.33ZM87.57,84V85H91v.83H87.57v.94h3v.81h-3v1h3.82v.84H82.82v-.84H86.6v-1H83.77v-.81H86.6v-.94H83.21V85H86.6V84ZM84.85,96.89h-1V90.21h6.46v5.46c0,.76-.41,1.13-1.19,1.13H88l-.24-.9,1.12,0a.45.45,0,0,0,.52-.49v-.8H84.85ZM89.37,91H84.85v1h4.52Zm-4.52,2.84h4.52v-1H84.85Z"/><path d="M94.59,86.79V84.06h1v2.73H97v1H95.59v.71q.84.92,1.72,2.1l-.57.85c-.45-.8-.83-1.46-1.15-2v7.35h-1V89.94a17.5,17.5,0,0,1-1.71,3.81l-.43-1.11a14.12,14.12,0,0,0,2.12-4.89H92.84v-1Zm2.83,2.8-.55-.85a11.81,11.81,0,0,0,3.84-4.66h.92a11.21,11.21,0,0,0,3.88,4.64l-.55.85a12.34,12.34,0,0,1-1.62-1.39V89H99.09v-.9A11.54,11.54,0,0,1,97.42,89.59Zm4.62,5.9A34.27,34.27,0,0,0,103.56,90l1,.25A32.53,32.53,0,0,1,103,95.49h2.18v1h-8v-1Zm-2.25-1.06-.88.24c-.28-1.4-.62-2.73-1-4l.87-.29A31.87,31.87,0,0,1,99.79,94.43Zm1.39-9.36a14.45,14.45,0,0,1-2.06,3h4.16A10.94,10.94,0,0,1,101.17,85.07Zm.71,8.68L101,94a35.52,35.52,0,0,0-.91-3.87l.87-.28A33.23,33.23,0,0,1,101.89,93.75Z"/><path d="M112.54,85.31V84h1v1.29h5.27v.92h-4.3a11,11,0,0,0,4.89,2.42l-.43.91a10.85,10.85,0,0,1-5.34-3.33h-.08v2.62h-1V86.23h-.08a11.9,11.9,0,0,1-5.32,3.35l-.53-.9a12.78,12.78,0,0,0,5-2.45h-4.33v-.92ZM119,95.55v.94H107v-.94Zm-1.81-6.25v5.16h-8.38V89.3Zm-1,2.17V90.2h-6.42v1.27Zm0,.85h-6.42v1.23h6.42Z"/><path d="M129.93,96.81l-.27-1,1.34,0a.52.52,0,0,0,.59-.57V85.59h-9.19V96.86h-1V84.62h11.18v10.9a1.12,1.12,0,0,1-1.25,1.29Zm-4.67-5.11a14.36,14.36,0,0,1-1.83,3.53l-.64-.78a14.33,14.33,0,0,0,1.81-3.68c-.67-.9-1.33-1.71-2-2.45l.63-.6a22.59,22.59,0,0,1,1.67,2,28.06,28.06,0,0,0,.66-3.17l.92.17a28.52,28.52,0,0,1-.88,4c.53.73,1.09,1.53,1.65,2.4l-.67.67C126.15,93,125.7,92.32,125.27,91.69Zm4,.34a15.06,15.06,0,0,1-2,3.53l-.64-.77a14.76,14.76,0,0,0,2-3.74c-.64-1-1.28-1.82-1.92-2.61l.63-.6A24.75,24.75,0,0,1,129,90a28.32,28.32,0,0,0,.74-3.39l1,.17a27,27,0,0,1-1,4.22c.53.81,1.11,1.72,1.71,2.73l-.69.67C130.23,93.53,129.75,92.76,129.29,92Z"/><path d="M138.08,84.38A23.33,23.33,0,0,1,136,88.7c.6-.08,1.21-.18,1.82-.29l.74-1.5.87.32a33.87,33.87,0,0,1-3,5.06,21.83,21.83,0,0,0,3-.85v.91a21.48,21.48,0,0,1-4.13,1l-.27-.91a1.57,1.57,0,0,0,.45-.29,16.15,16.15,0,0,0,1.88-2.84c-.76.14-1.51.27-2.28.38l-.25-.92a1,1,0,0,0,.42-.38A24,24,0,0,0,137.14,84Zm1.57,10.67A26.91,26.91,0,0,1,135,96.34l-.13-1a25.86,25.86,0,0,0,4.82-1.25Zm3.19-10.86a11.19,11.19,0,0,1-.39,1.11h3.8V86A9.17,9.17,0,0,1,144,89.1a11.19,11.19,0,0,0,3.54,1.67l-.57.83a10.88,10.88,0,0,1-3.71-1.88,15,15,0,0,1-3.59,1.95l-.62-.81a14.69,14.69,0,0,0,3.47-1.79,9.43,9.43,0,0,1-1.36-1.74,9.57,9.57,0,0,1-1.26,1.25l-.59-.78A7.64,7.64,0,0,0,141.87,84Zm3.4,12.61h-1v-.6h-3.82v.6h-1V91.64h5.76Zm-1-1.53V92.56h-3.82v2.72Zm-2-6.79a8.27,8.27,0,0,0,1.89-2.28H142l-.25.41A8.21,8.21,0,0,0,143.26,88.49Z"/><path d="M152.12,94.06a.8.8,0,0,1,.24.59.81.81,0,0,1-.24.6.89.89,0,0,1-.62.24.86.86,0,0,1-.6-.24.8.8,0,0,1-.24-.6.75.75,0,0,1,.24-.59.8.8,0,0,1,.6-.24A.83.83,0,0,1,152.12,94.06Zm0-8.57-.22,7.31h-.87l-.21-7.31Z"/></svg>