<svg xmlns="http://www.w3.org/2000/svg" viewBox="0 0 30 30"><g width="30" height="30" style="fill:none;stroke:#8a4cc1;stroke-miterlimit:10;stroke-width:2px;stroke-dasharray:1000;stroke-dashoffset:1000;transform-origin:15px 15px;"><path d="M23.05,2.7a14.83,14.83,0,0,1,4,4.24,14.75,14.75,0,0,1,2.1,6.41,14.3,14.3,0,0,1-1.37,7.32,14.61,14.61,0,0,1-2.17,3.23,15,15,0,0,1-3,2.52A14.69,14.69,0,0,1,18.93,28a13.77,13.77,0,0,1-1.91.34,15.85,15.85,0,0,1-2,.09,14.87,14.87,0,0,1-3.85-.72,14.25,14.25,0,0,1-3.41-1.77,14.25,14.25,0,0,1-2.69-2.6A13.57,13.57,0,0,1,3.27,20.2a13.45,13.45,0,0,1-.53-1.67l-0.18-.84c-0.06-.28-0.06-0.52-0.1-0.78a13.67,13.67,0,0,1-.09-1.81V14.89a0.54,0.54,0,0,0,0,.09l0-.2,0-.41c0-.27,0-0.54.08-0.8A12.79,12.79,0,0,1,4.75,8.16,12.43,12.43,0,0,1,8.36,4.86a11.61,11.61,0,0,1,3.45-1.38l0.71-.15c0.21,0,.39,0,0.56-0.06l0.47-.06c0.15,0,.39,0,0.55,0l1.06,0A3.17,3.17,0,0,0,18.23.48L19,0.69A14.37,14.37,0,0,1,23.05,2.7Z" style="fill:none"/><path d="M15,0a15,15,0,1,0,3.24.36A15,15,0,0,0,15,0Zm3.23,0.48L19,0.69a14.37,14.37,0,0,1,4.09,2,14.83,14.83,0,0,1,4,4.24,14.75,14.75,0,0,1,2.1,6.41,14.3,14.3,0,0,1-1.37,7.32,14.61,14.61,0,0,1-2.17,3.23,15,15,0,0,1-3,2.52A14.69,14.69,0,0,1,18.93,28a13.77,13.77,0,0,1-1.91.34,15.85,15.85,0,0,1-2,.09,14.87,14.87,0,0,1-3.85-.72,14.25,14.25,0,0,1-3.41-1.77,14.25,14.25,0,0,1-2.69-2.6A13.57,13.57,0,0,1,3.27,20.2a13.45,13.45,0,0,1-.53-1.67l-0.18-.84c-0.06-.28-0.06-0.52-0.1-0.78a13.67,13.67,0,0,1-.09-1.81V14.89a0.54,0.54,0,0,0,0,.09l0-.2,0-.41c0-.27,0-0.54.08-0.8A12.79,12.79,0,0,1,4.75,8.16,12.43,12.43,0,0,1,8.36,4.86a11.61,11.61,0,0,1,3.45-1.38l0.71-.15c0.21,0,.39,0,0.56-0.06l0.47-.06c0.15,0,.39,0,0.55,0l1.06,0A3.17,3.17,0,0,0,18.23.48Z" style="fill:#8a4cc1"/></g></svg>
