<?xml version="1.0" encoding="utf-8"?>
<!-- Generator: Adobe Illustrator 18.0.0, SVG Export Plug-In . SVG Version: 6.00 Build 0)  -->
<!DOCTYPE svg PUBLIC "-//W3C//DTD SVG 1.1//EN" "http://www.w3.org/Graphics/SVG/1.1/DTD/svg11.dtd">
<svg version="1.1" id="Layer_1" xmlns="http://www.w3.org/2000/svg" xmlns:xlink="http://www.w3.org/1999/xlink" x="0px" y="0px"
	 viewBox="578.5 0.8 900 900" enable-background="new 578.5 0.8 900 900" xml:space="preserve">
<g>
	<g>
		<path fill="#444444" d="M1068,900.8c-10.4,0-20.8-4.2-29.1-12.5L629,480.5c-16.6-16.6-16.6-41.6,0-58.3l409.9-409.8
			c12.5-12.5,29.1-14.6,43.6-8.3c14.5,6.3,25,20.7,25,37.4v206c0,22.9-18.7,41.6-41.6,41.6s-41.6-18.7-41.6-41.6V141.5l-310,309.9
			l307.9,307.9v-95.7c0-22.9,18.7-41.6,41.6-41.6c22.9,0,41.6,18.7,41.6,41.6v195.6c0,16.6-8.3,31.2-24.9,37.4
			C1076.3,900.8,1072.1,900.8,1068,900.8z"/>
	</g>
	<g>
		<path fill="#444444" d="M1398.8,705.2h-312.1c-22.9,0-41.6-18.7-41.6-41.6s18.7-41.6,41.6-41.6h270.4V289.2h-270.4
			c-22.9,0-41.6-18.7-41.6-41.6s18.7-41.6,41.6-41.6h312.1c22.9,0,41.6,18.7,41.6,41.6v416.1
			C1440.3,686.5,1421.6,705.2,1398.8,705.2z"/>
	</g>
</g>
</svg>
