<?xml version="1.0" encoding="utf-8"?>
<!-- Generator: Adobe Illustrator 18.0.0, SVG Export Plug-In . SVG Version: 6.00 Build 0)  -->
<!DOCTYPE svg PUBLIC "-//W3C//DTD SVG 1.1//EN" "http://www.w3.org/Graphics/SVG/1.1/DTD/svg11.dtd">
<svg version="1.1" id="Layer_1" xmlns="http://www.w3.org/2000/svg" xmlns:xlink="http://www.w3.org/1999/xlink" x="0px" y="0px"
	 viewBox="378.6 -100 1100 1100" enable-background="new 378.6 -100 1100 1100" xml:space="preserve">
<g>
	<g>
		<path fill="#444444" d="M1391.6,557.5c-11.8,0-23.6-4.7-33.1-14.2L928.6,113.4L496.3,545.7c-18.9,18.9-47.2,18.9-66.1,0
			s-18.9-47.2,0-66.1L895.5,14.2c18.9-18.9,49.6-18.9,66.1,0L1427,479.6c18.9,18.9,18.9,47.2,0,66.1
			C1417.6,555.1,1405.7,557.5,1391.6,557.5z"/>
	</g>
	<g>
		<path fill="#444444" d="M1212,900H645.1c-26,0-47.2-21.3-47.2-47.2V333.1c0-26,21.3-47.2,47.2-47.2s47.2,21.3,47.2,47.2v472.4
			h472.4V333.1c0-26,21.3-47.2,47.2-47.2s47.2,21.3,47.2,47.2v519.7C1259.3,878.7,1238,900,1212,900z"/>
	</g>
</g>
</svg>
