<?xml version="1.0" encoding="utf-8"?>
<!-- Generator: Adobe Illustrator 18.0.0, SVG Export Plug-In . SVG Version: 6.00 Build 0)  -->
<!DOCTYPE svg PUBLIC "-//W3C//DTD SVG 1.1//EN" "http://www.w3.org/Graphics/SVG/1.1/DTD/svg11.dtd">
<svg version="1.1" id="Layer_1" xmlns="http://www.w3.org/2000/svg" xmlns:xlink="http://www.w3.org/1999/xlink" x="0px" y="0px"
	 viewBox="220 -50 1000 1000" enable-background="new 220 -50 1000 1000" xml:space="preserve">
<g>
	<path fill="#444444" d="M1081.9,904.8H358.1c-76.2,0-138.1-62-138.1-138.1v-543c0-76.2,62-138.1,138.1-138.1h121.4l69-73.8
		c9.6-12,21.5-16.8,35.8-16.8h271.5c14.3,0,26.2,4.8,35.7,14.3l69,73.8h121.5c76.2,0,138.1,62,138.1,138.1v543.1
		C1220.1,842.9,1158.1,904.8,1081.9,904.8z M358.1,180.9c-23.9,0-42.9,19-42.9,42.9v543c0,23.9,19,42.9,42.9,42.9h723.9
		c23.9,0,42.9-19,42.9-42.9v-543c0-23.9-19-42.9-42.9-42.9H939.1c-14.3,0-26.2-4.8-35.7-14.3l-69-76.2H605.7l-69,73.8
		c-9.5,9.5-21.4,14.3-35.7,14.3H358.1V180.9z M720,745.2c-150,0-273.8-123.8-273.8-273.8S570,197.6,720,197.6
		s273.8,123.8,273.8,273.8S870,745.2,720,745.2z M720,292.8c-97.6,0-178.6,81-178.6,178.6S622.4,650,720,650s178.6-81,178.6-178.6
		S817.6,292.8,720,292.8z"/>
</g>
</svg>
