<svg xmlns="http://www.w3.org/2000/svg" viewBox="0 0 200 200"><rect width="200" height="200" style="fill:#fff"/><rect x="15" y="15" width="5.86" height="5.86"/><rect x="15" y="20.86" width="5.86" height="5.86"/><rect x="15" y="26.72" width="5.86" height="5.86"/><rect x="15" y="32.59" width="5.86" height="5.86"/><rect x="15" y="38.45" width="5.86" height="5.86"/><rect x="15" y="44.31" width="5.86" height="5.86"/><rect x="15" y="50.17" width="5.86" height="5.86"/><rect x="15" y="61.9" width="5.86" height="5.86"/><rect x="15" y="67.76" width="5.86" height="5.86"/><rect x="15" y="73.62" width="5.86" height="5.86"/><rect x="15" y="79.48" width="5.86" height="5.86"/><rect x="15" y="91.21" width="5.86" height="5.86"/><rect x="15" y="97.07" width="5.86" height="5.86"/><rect x="15" y="102.93" width="5.86" height="5.86"/><rect x="15" y="108.79" width="5.86" height="5.86"/><rect x="15" y="120.52" width="5.86" height="5.86"/><rect x="15" y="132.24" width="5.86" height="5.86"/><rect x="15" y="143.97" width="5.86" height="5.86"/><rect x="15" y="149.83" width="5.86" height="5.86"/><rect x="15" y="155.69" width="5.86" height="5.86"/><rect x="15" y="161.55" width="5.86" height="5.86"/><rect x="15" y="167.41" width="5.86" height="5.86"/><rect x="15" y="173.28" width="5.86" height="5.86"/><rect x="15" y="179.14" width="5.86" height="5.86"/><rect x="20.86" y="15" width="5.86" height="5.86"/><rect x="20.86" y="50.17" width="5.86" height="5.86"/><rect x="20.86" y="61.9" width="5.86" height="5.86"/><rect x="20.86" y="67.76" width="5.86" height="5.86"/><rect x="20.86" y="73.62" width="5.86" height="5.86"/><rect x="20.86" y="79.48" width="5.86" height="5.86"/><rect x="20.86" y="97.07" width="5.86" height="5.86"/><rect x="20.86" y="114.66" width="5.86" height="5.86"/><rect x="20.86" y="126.38" width="5.86" height="5.86"/><rect x="20.86" y="143.97" width="5.86" height="5.86"/><rect x="20.86" y="179.14" width="5.86" height="5.86"/><rect x="26.72" y="15" width="5.86" height="5.86"/><rect x="26.72" y="26.72" width="5.86" height="5.86"/><rect x="26.72" y="32.59" width="5.86" height="5.86"/><rect x="26.72" y="38.45" width="5.86" height="5.86"/><rect x="26.72" y="50.17" width="5.86" height="5.86"/><rect x="26.72" y="61.9" width="5.86" height="5.86"/><rect x="26.72" y="67.76" width="5.86" height="5.86"/><rect x="26.72" y="73.62" width="5.86" height="5.86"/><rect x="26.72" y="85.34" width="5.86" height="5.86"/><rect x="26.72" y="91.21" width="5.86" height="5.86"/><rect x="26.72" y="108.79" width="5.86" height="5.86"/><rect x="26.72" y="120.52" width="5.86" height="5.86"/><rect x="26.72" y="126.38" width="5.86" height="5.86"/><rect x="26.72" y="132.24" width="5.86" height="5.86"/><rect x="26.72" y="143.97" width="5.86" height="5.86"/><rect x="26.72" y="155.69" width="5.86" height="5.86"/><rect x="26.72" y="161.55" width="5.86" height="5.86"/><rect x="26.72" y="167.41" width="5.86" height="5.86"/><rect x="26.72" y="179.14" width="5.86" height="5.86"/><rect x="32.59" y="15" width="5.86" height="5.86"/><rect x="32.59" y="26.72" width="5.86" height="5.86"/><rect x="32.59" y="32.59" width="5.86" height="5.86"/><rect x="32.59" y="38.45" width="5.86" height="5.86"/><rect x="32.59" y="50.17" width="5.86" height="5.86"/><rect x="32.59" y="79.48" width="5.86" height="5.86"/><rect x="32.59" y="85.34" width="5.86" height="5.86"/><rect x="32.59" y="97.07" width="5.86" height="5.86"/><rect x="32.59" y="126.38" width="5.86" height="5.86"/><rect x="32.59" y="132.24" width="5.86" height="5.86"/><rect x="32.59" y="143.97" width="5.86" height="5.86"/><rect x="32.59" y="155.69" width="5.86" height="5.86"/><rect x="32.59" y="161.55" width="5.86" height="5.86"/><rect x="32.59" y="167.41" width="5.86" height="5.86"/><rect x="32.59" y="179.14" width="5.86" height="5.86"/><rect x="38.45" y="15" width="5.86" height="5.86"/><rect x="38.45" y="26.72" width="5.86" height="5.86"/><rect x="38.45" y="32.59" width="5.86" height="5.86"/><rect x="38.45" y="38.45" width="5.86" height="5.86"/><rect x="38.45" y="50.17" width="5.86" height="5.86"/><rect x="38.45" y="61.9" width="5.86" height="5.86"/><rect x="38.45" y="73.62" width="5.86" height="5.86"/><rect x="38.45" y="79.48" width="5.86" height="5.86"/><rect x="38.45" y="97.07" width="5.86" height="5.86"/><rect x="38.45" y="108.79" width="5.86" height="5.86"/><rect x="38.45" y="120.52" width="5.86" height="5.86"/><rect x="38.45" y="143.97" width="5.86" height="5.86"/><rect x="38.45" y="155.69" width="5.86" height="5.86"/><rect x="38.45" y="161.55" width="5.86" height="5.86"/><rect x="38.45" y="167.41" width="5.86" height="5.86"/><rect x="38.45" y="179.14" width="5.86" height="5.86"/><rect x="44.31" y="15" width="5.86" height="5.86"/><rect x="44.31" y="50.17" width="5.86" height="5.86"/><rect x="44.31" y="61.9" width="5.86" height="5.86"/><rect x="44.31" y="67.76" width="5.86" height="5.86"/><rect x="44.31" y="91.21" width="5.86" height="5.86"/><rect x="44.31" y="97.07" width="5.86" height="5.86"/><rect x="44.31" y="114.66" width="5.86" height="5.86"/><rect x="44.31" y="126.38" width="5.86" height="5.86"/><rect x="44.31" y="132.24" width="5.86" height="5.86"/><rect x="44.31" y="143.97" width="5.86" height="5.86"/><rect x="44.31" y="179.14" width="5.86" height="5.86"/><rect x="50.17" y="15" width="5.86" height="5.86"/><rect x="50.17" y="20.86" width="5.86" height="5.86"/><rect x="50.17" y="26.72" width="5.86" height="5.86"/><rect x="50.17" y="32.59" width="5.86" height="5.86"/><rect x="50.17" y="38.45" width="5.86" height="5.86"/><rect x="50.17" y="44.31" width="5.86" height="5.86"/><rect x="50.17" y="50.17" width="5.86" height="5.86"/><rect x="50.17" y="61.9" width="5.86" height="5.86"/><rect x="50.17" y="73.62" width="5.86" height="5.86"/><rect x="50.17" y="85.34" width="5.86" height="5.86"/><rect x="50.17" y="97.07" width="5.86" height="5.86"/><rect x="50.17" y="108.79" width="5.86" height="5.86"/><rect x="50.17" y="120.52" width="5.86" height="5.86"/><rect x="50.17" y="132.24" width="5.86" height="5.86"/><rect x="50.17" y="143.97" width="5.86" height="5.86"/><rect x="50.17" y="149.83" width="5.86" height="5.86"/><rect x="50.17" y="155.69" width="5.86" height="5.86"/><rect x="50.17" y="161.55" width="5.86" height="5.86"/><rect x="50.17" y="167.41" width="5.86" height="5.86"/><rect x="50.17" y="173.28" width="5.86" height="5.86"/><rect x="50.17" y="179.14" width="5.86" height="5.86"/><rect x="56.03" y="61.9" width="5.86" height="5.86"/><rect x="56.03" y="67.76" width="5.86" height="5.86"/><rect x="56.03" y="73.62" width="5.86" height="5.86"/><rect x="56.03" y="79.48" width="5.86" height="5.86"/><rect x="56.03" y="85.34" width="5.86" height="5.86"/><rect x="56.03" y="108.79" width="5.86" height="5.86"/><rect x="56.03" y="114.66" width="5.86" height="5.86"/><rect x="56.03" y="120.52" width="5.86" height="5.86"/><rect x="56.03" y="126.38" width="5.86" height="5.86"/><rect x="56.03" y="132.24" width="5.86" height="5.86"/><rect x="61.9" y="26.72" width="5.86" height="5.86"/><rect x="61.9" y="50.17" width="5.86" height="5.86"/><rect x="61.9" y="56.03" width="5.86" height="5.86"/><rect x="61.9" y="61.9" width="5.86" height="5.86"/><rect x="61.9" y="67.76" width="5.86" height="5.86"/><rect x="61.9" y="73.62" width="5.86" height="5.86"/><rect x="61.9" y="79.48" width="5.86" height="5.86"/><rect x="61.9" y="97.07" width="5.86" height="5.86"/><rect x="61.9" y="120.52" width="5.86" height="5.86"/><rect x="61.9" y="138.1" width="5.86" height="5.86"/><rect x="61.9" y="143.97" width="5.86" height="5.86"/><rect x="61.9" y="149.83" width="5.86" height="5.86"/><rect x="61.9" y="155.69" width="5.86" height="5.86"/><rect x="61.9" y="167.41" width="5.86" height="5.86"/><rect x="61.9" y="173.28" width="5.86" height="5.86"/><rect x="61.9" y="179.14" width="5.86" height="5.86"/><rect x="67.76" y="15" width="5.86" height="5.86"/><rect x="67.76" y="26.72" width="5.86" height="5.86"/><rect x="67.76" y="32.59" width="5.86" height="5.86"/><rect x="67.76" y="44.31" width="5.86" height="5.86"/><rect x="67.76" y="56.03" width="5.86" height="5.86"/><rect x="67.76" y="73.62" width="5.86" height="5.86"/><rect x="67.76" y="97.07" width="5.86" height="5.86"/><rect x="67.76" y="126.38" width="5.86" height="5.86"/><rect x="67.76" y="132.24" width="5.86" height="5.86"/><rect x="67.76" y="143.97" width="5.86" height="5.86"/><rect x="67.76" y="155.69" width="5.86" height="5.86"/><rect x="67.76" y="161.55" width="5.86" height="5.86"/><rect x="73.62" y="20.86" width="5.86" height="5.86"/><rect x="73.62" y="26.72" width="5.86" height="5.86"/><rect x="73.62" y="32.59" width="5.86" height="5.86"/><rect x="73.62" y="38.45" width="5.86" height="5.86"/><rect x="73.62" y="50.17" width="5.86" height="5.86"/><rect x="73.62" y="56.03" width="5.86" height="5.86"/><rect x="73.62" y="61.9" width="5.86" height="5.86"/><rect x="73.62" y="67.76" width="5.86" height="5.86"/><rect x="73.62" y="97.07" width="5.86" height="5.86"/><rect x="73.62" y="102.93" width="5.86" height="5.86"/><rect x="73.62" y="108.79" width="5.86" height="5.86"/><rect x="73.62" y="114.66" width="5.86" height="5.86"/><rect x="73.62" y="120.52" width="5.86" height="5.86"/><rect x="73.62" y="138.1" width="5.86" height="5.86"/><rect x="73.62" y="143.97" width="5.86" height="5.86"/><rect x="73.62" y="149.83" width="5.86" height="5.86"/><rect x="79.48" y="20.86" width="5.86" height="5.86"/><rect x="79.48" y="32.59" width="5.86" height="5.86"/><rect x="79.48" y="61.9" width="5.86" height="5.86"/><rect x="79.48" y="67.76" width="5.86" height="5.86"/><rect x="79.48" y="79.48" width="5.86" height="5.86"/><rect x="79.48" y="91.21" width="5.86" height="5.86"/><rect x="79.48" y="97.07" width="5.86" height="5.86"/><rect x="79.48" y="108.79" width="5.86" height="5.86"/><rect x="79.48" y="114.66" width="5.86" height="5.86"/><rect x="79.48" y="126.38" width="5.86" height="5.86"/><rect x="79.48" y="138.1" width="5.86" height="5.86"/><rect x="79.48" y="143.97" width="5.86" height="5.86"/><rect x="79.48" y="155.69" width="5.86" height="5.86"/><rect x="79.48" y="161.55" width="5.86" height="5.86"/><rect x="79.48" y="173.28" width="5.86" height="5.86"/><rect x="79.48" y="179.14" width="5.86" height="5.86"/><rect x="85.34" y="15" width="5.86" height="5.86"/><rect x="85.34" y="20.86" width="5.86" height="5.86"/><rect x="85.34" y="26.72" width="5.86" height="5.86"/><rect x="85.34" y="50.17" width="5.86" height="5.86"/><rect x="85.34" y="56.03" width="5.86" height="5.86"/><rect x="85.34" y="85.34" width="5.86" height="5.86"/><rect x="85.34" y="91.21" width="5.86" height="5.86"/><rect x="85.34" y="97.07" width="5.86" height="5.86"/><rect x="85.34" y="102.93" width="5.86" height="5.86"/><rect x="85.34" y="132.24" width="5.86" height="5.86"/><rect x="85.34" y="138.1" width="5.86" height="5.86"/><rect x="85.34" y="143.97" width="5.86" height="5.86"/><rect x="85.34" y="149.83" width="5.86" height="5.86"/><rect x="85.34" y="155.69" width="5.86" height="5.86"/><rect x="85.34" y="167.41" width="5.86" height="5.86"/><rect x="85.34" y="173.28" width="5.86" height="5.86"/><rect x="85.34" y="179.14" width="5.86" height="5.86"/><rect x="91.21" y="20.86" width="5.86" height="5.86"/><rect x="91.21" y="44.31" width="5.86" height="5.86"/><rect x="91.21" y="56.03" width="5.86" height="5.86"/><rect x="91.21" y="61.9" width="5.86" height="5.86"/><rect x="91.21" y="67.76" width="5.86" height="5.86"/><rect x="91.21" y="79.48" width="5.86" height="5.86"/><rect x="91.21" y="85.34" width="5.86" height="5.86"/><rect x="91.21" y="97.07" width="5.86" height="5.86"/><rect x="91.21" y="102.93" width="5.86" height="5.86"/><rect x="91.21" y="108.79" width="5.86" height="5.86"/><rect x="91.21" y="126.38" width="5.86" height="5.86"/><rect x="91.21" y="132.24" width="5.86" height="5.86"/><rect x="91.21" y="138.1" width="5.86" height="5.86"/><rect x="91.21" y="149.83" width="5.86" height="5.86"/><rect x="91.21" y="155.69" width="5.86" height="5.86"/><rect x="91.21" y="173.28" width="5.86" height="5.86"/><rect x="91.21" y="179.14" width="5.86" height="5.86"/><rect x="97.07" y="15" width="5.86" height="5.86"/><rect x="97.07" y="32.59" width="5.86" height="5.86"/><rect x="97.07" y="50.17" width="5.86" height="5.86"/><rect x="97.07" y="67.76" width="5.86" height="5.86"/><rect x="97.07" y="73.62" width="5.86" height="5.86"/><rect x="97.07" y="85.34" width="5.86" height="5.86"/><rect x="97.07" y="120.52" width="5.86" height="5.86"/><rect x="97.07" y="138.1" width="5.86" height="5.86"/><rect x="97.07" y="173.28" width="5.86" height="5.86"/><rect x="102.93" y="20.86" width="5.86" height="5.86"/><rect x="102.93" y="26.72" width="5.86" height="5.86"/><rect x="102.93" y="32.59" width="5.86" height="5.86"/><rect x="102.93" y="38.45" width="5.86" height="5.86"/><rect x="102.93" y="44.31" width="5.86" height="5.86"/><rect x="102.93" y="56.03" width="5.86" height="5.86"/><rect x="102.93" y="79.48" width="5.86" height="5.86"/><rect x="102.93" y="85.34" width="5.86" height="5.86"/><rect x="102.93" y="108.79" width="5.86" height="5.86"/><rect x="102.93" y="126.38" width="5.86" height="5.86"/><rect x="102.93" y="173.28" width="5.86" height="5.86"/><rect x="108.79" y="26.72" width="5.86" height="5.86"/><rect x="108.79" y="32.59" width="5.86" height="5.86"/><rect x="108.79" y="44.31" width="5.86" height="5.86"/><rect x="108.79" y="50.17" width="5.86" height="5.86"/><rect x="108.79" y="56.03" width="5.86" height="5.86"/><rect x="108.79" y="61.9" width="5.86" height="5.86"/><rect x="108.79" y="67.76" width="5.86" height="5.86"/><rect x="108.79" y="79.48" width="5.86" height="5.86"/><rect x="108.79" y="85.34" width="5.86" height="5.86"/><rect x="108.79" y="91.21" width="5.86" height="5.86"/><rect x="108.79" y="102.93" width="5.86" height="5.86"/><rect x="108.79" y="108.79" width="5.86" height="5.86"/><rect x="108.79" y="114.66" width="5.86" height="5.86"/><rect x="108.79" y="120.52" width="5.86" height="5.86"/><rect x="108.79" y="126.38" width="5.86" height="5.86"/><rect x="108.79" y="138.1" width="5.86" height="5.86"/><rect x="108.79" y="161.55" width="5.86" height="5.86"/><rect x="108.79" y="173.28" width="5.86" height="5.86"/><rect x="114.66" y="20.86" width="5.86" height="5.86"/><rect x="114.66" y="44.31" width="5.86" height="5.86"/><rect x="114.66" y="56.03" width="5.86" height="5.86"/><rect x="114.66" y="61.9" width="5.86" height="5.86"/><rect x="114.66" y="67.76" width="5.86" height="5.86"/><rect x="114.66" y="79.48" width="5.86" height="5.86"/><rect x="114.66" y="85.34" width="5.86" height="5.86"/><rect x="114.66" y="97.07" width="5.86" height="5.86"/><rect x="114.66" y="102.93" width="5.86" height="5.86"/><rect x="114.66" y="108.79" width="5.86" height="5.86"/><rect x="114.66" y="114.66" width="5.86" height="5.86"/><rect x="114.66" y="126.38" width="5.86" height="5.86"/><rect x="114.66" y="132.24" width="5.86" height="5.86"/><rect x="114.66" y="138.1" width="5.86" height="5.86"/><rect x="114.66" y="143.97" width="5.86" height="5.86"/><rect x="114.66" y="149.83" width="5.86" height="5.86"/><rect x="114.66" y="161.55" width="5.86" height="5.86"/><rect x="114.66" y="167.41" width="5.86" height="5.86"/><rect x="114.66" y="173.28" width="5.86" height="5.86"/><rect x="114.66" y="179.14" width="5.86" height="5.86"/><rect x="120.52" y="15" width="5.86" height="5.86"/><rect x="120.52" y="32.59" width="5.86" height="5.86"/><rect x="120.52" y="50.17" width="5.86" height="5.86"/><rect x="120.52" y="67.76" width="5.86" height="5.86"/><rect x="120.52" y="73.62" width="5.86" height="5.86"/><rect x="120.52" y="85.34" width="5.86" height="5.86"/><rect x="120.52" y="102.93" width="5.86" height="5.86"/><rect x="120.52" y="138.1" width="5.86" height="5.86"/><rect x="120.52" y="149.83" width="5.86" height="5.86"/><rect x="120.52" y="167.41" width="5.86" height="5.86"/><rect x="120.52" y="173.28" width="5.86" height="5.86"/><rect x="126.38" y="20.86" width="5.86" height="5.86"/><rect x="126.38" y="26.72" width="5.86" height="5.86"/><rect x="126.38" y="38.45" width="5.86" height="5.86"/><rect x="126.38" y="44.31" width="5.86" height="5.86"/><rect x="126.38" y="56.03" width="5.86" height="5.86"/><rect x="126.38" y="61.9" width="5.86" height="5.86"/><rect x="126.38" y="85.34" width="5.86" height="5.86"/><rect x="126.38" y="132.24" width="5.86" height="5.86"/><rect x="126.38" y="138.1" width="5.86" height="5.86"/><rect x="126.38" y="143.97" width="5.86" height="5.86"/><rect x="126.38" y="149.83" width="5.86" height="5.86"/><rect x="126.38" y="161.55" width="5.86" height="5.86"/><rect x="126.38" y="179.14" width="5.86" height="5.86"/><rect x="132.24" y="20.86" width="5.86" height="5.86"/><rect x="132.24" y="38.45" width="5.86" height="5.86"/><rect x="132.24" y="44.31" width="5.86" height="5.86"/><rect x="132.24" y="50.17" width="5.86" height="5.86"/><rect x="132.24" y="56.03" width="5.86" height="5.86"/><rect x="132.24" y="61.9" width="5.86" height="5.86"/><rect x="132.24" y="67.76" width="5.86" height="5.86"/><rect x="132.24" y="79.48" width="5.86" height="5.86"/><rect x="132.24" y="85.34" width="5.86" height="5.86"/><rect x="132.24" y="91.21" width="5.86" height="5.86"/><rect x="132.24" y="108.79" width="5.86" height="5.86"/><rect x="132.24" y="114.66" width="5.86" height="5.86"/><rect x="132.24" y="120.52" width="5.86" height="5.86"/><rect x="132.24" y="126.38" width="5.86" height="5.86"/><rect x="132.24" y="132.24" width="5.86" height="5.86"/><rect x="132.24" y="138.1" width="5.86" height="5.86"/><rect x="132.24" y="143.97" width="5.86" height="5.86"/><rect x="132.24" y="149.83" width="5.86" height="5.86"/><rect x="132.24" y="155.69" width="5.86" height="5.86"/><rect x="132.24" y="173.28" width="5.86" height="5.86"/><rect x="132.24" y="179.14" width="5.86" height="5.86"/><rect x="138.1" y="61.9" width="5.86" height="5.86"/><rect x="138.1" y="67.76" width="5.86" height="5.86"/><rect x="138.1" y="73.62" width="5.86" height="5.86"/><rect x="138.1" y="79.48" width="5.86" height="5.86"/><rect x="138.1" y="91.21" width="5.86" height="5.86"/><rect x="138.1" y="97.07" width="5.86" height="5.86"/><rect x="138.1" y="108.79" width="5.86" height="5.86"/><rect x="138.1" y="114.66" width="5.86" height="5.86"/><rect x="138.1" y="120.52" width="5.86" height="5.86"/><rect x="138.1" y="132.24" width="5.86" height="5.86"/><rect x="138.1" y="155.69" width="5.86" height="5.86"/><rect x="138.1" y="167.41" width="5.86" height="5.86"/><rect x="138.1" y="173.28" width="5.86" height="5.86"/><rect x="138.1" y="179.14" width="5.86" height="5.86"/><rect x="143.97" y="15" width="5.86" height="5.86"/><rect x="143.97" y="20.86" width="5.86" height="5.86"/><rect x="143.97" y="26.72" width="5.86" height="5.86"/><rect x="143.97" y="32.59" width="5.86" height="5.86"/><rect x="143.97" y="38.45" width="5.86" height="5.86"/><rect x="143.97" y="44.31" width="5.86" height="5.86"/><rect x="143.97" y="50.17" width="5.86" height="5.86"/><rect x="143.97" y="61.9" width="5.86" height="5.86"/><rect x="143.97" y="67.76" width="5.86" height="5.86"/><rect x="143.97" y="85.34" width="5.86" height="5.86"/><rect x="143.97" y="91.21" width="5.86" height="5.86"/><rect x="143.97" y="108.79" width="5.86" height="5.86"/><rect x="143.97" y="114.66" width="5.86" height="5.86"/><rect x="143.97" y="132.24" width="5.86" height="5.86"/><rect x="143.97" y="143.97" width="5.86" height="5.86"/><rect x="143.97" y="155.69" width="5.86" height="5.86"/><rect x="149.83" y="15" width="5.86" height="5.86"/><rect x="149.83" y="50.17" width="5.86" height="5.86"/><rect x="149.83" y="73.62" width="5.86" height="5.86"/><rect x="149.83" y="79.48" width="5.86" height="5.86"/><rect x="149.83" y="85.34" width="5.86" height="5.86"/><rect x="149.83" y="114.66" width="5.86" height="5.86"/><rect x="149.83" y="120.52" width="5.86" height="5.86"/><rect x="149.83" y="132.24" width="5.86" height="5.86"/><rect x="149.83" y="155.69" width="5.86" height="5.86"/><rect x="149.83" y="167.41" width="5.86" height="5.86"/><rect x="149.83" y="179.14" width="5.86" height="5.86"/><rect x="155.69" y="15" width="5.86" height="5.86"/><rect x="155.69" y="26.72" width="5.86" height="5.86"/><rect x="155.69" y="32.59" width="5.86" height="5.86"/><rect x="155.69" y="38.45" width="5.86" height="5.86"/><rect x="155.69" y="50.17" width="5.86" height="5.86"/><rect x="155.69" y="73.62" width="5.86" height="5.86"/><rect x="155.69" y="102.93" width="5.86" height="5.86"/><rect x="155.69" y="132.24" width="5.86" height="5.86"/><rect x="155.69" y="138.1" width="5.86" height="5.86"/><rect x="155.69" y="143.97" width="5.86" height="5.86"/><rect x="155.69" y="149.83" width="5.86" height="5.86"/><rect x="155.69" y="155.69" width="5.86" height="5.86"/><rect x="155.69" y="161.55" width="5.86" height="5.86"/><rect x="155.69" y="167.41" width="5.86" height="5.86"/><rect x="155.69" y="173.28" width="5.86" height="5.86"/><rect x="155.69" y="179.14" width="5.86" height="5.86"/><rect x="161.55" y="15" width="5.86" height="5.86"/><rect x="161.55" y="26.72" width="5.86" height="5.86"/><rect x="161.55" y="32.59" width="5.86" height="5.86"/><rect x="161.55" y="38.45" width="5.86" height="5.86"/><rect x="161.55" y="50.17" width="5.86" height="5.86"/><rect x="161.55" y="67.76" width="5.86" height="5.86"/><rect x="161.55" y="79.48" width="5.86" height="5.86"/><rect x="161.55" y="85.34" width="5.86" height="5.86"/><rect x="161.55" y="91.21" width="5.86" height="5.86"/><rect x="161.55" y="102.93" width="5.86" height="5.86"/><rect x="161.55" y="120.52" width="5.86" height="5.86"/><rect x="161.55" y="126.38" width="5.86" height="5.86"/><rect x="161.55" y="143.97" width="5.86" height="5.86"/><rect x="161.55" y="155.69" width="5.86" height="5.86"/><rect x="161.55" y="167.41" width="5.86" height="5.86"/><rect x="161.55" y="179.14" width="5.86" height="5.86"/><rect x="167.41" y="15" width="5.86" height="5.86"/><rect x="167.41" y="26.72" width="5.86" height="5.86"/><rect x="167.41" y="32.59" width="5.86" height="5.86"/><rect x="167.41" y="38.45" width="5.86" height="5.86"/><rect x="167.41" y="50.17" width="5.86" height="5.86"/><rect x="167.41" y="61.9" width="5.86" height="5.86"/><rect x="167.41" y="73.62" width="5.86" height="5.86"/><rect x="167.41" y="91.21" width="5.86" height="5.86"/><rect x="167.41" y="114.66" width="5.86" height="5.86"/><rect x="167.41" y="138.1" width="5.86" height="5.86"/><rect x="173.28" y="15" width="5.86" height="5.86"/><rect x="173.28" y="50.17" width="5.86" height="5.86"/><rect x="173.28" y="73.62" width="5.86" height="5.86"/><rect x="173.28" y="79.48" width="5.86" height="5.86"/><rect x="173.28" y="85.34" width="5.86" height="5.86"/><rect x="173.28" y="97.07" width="5.86" height="5.86"/><rect x="173.28" y="102.93" width="5.86" height="5.86"/><rect x="173.28" y="108.79" width="5.86" height="5.86"/><rect x="173.28" y="120.52" width="5.86" height="5.86"/><rect x="173.28" y="126.38" width="5.86" height="5.86"/><rect x="173.28" y="138.1" width="5.86" height="5.86"/><rect x="173.28" y="143.97" width="5.86" height="5.86"/><rect x="173.28" y="149.83" width="5.86" height="5.86"/><rect x="173.28" y="155.69" width="5.86" height="5.86"/><rect x="173.28" y="161.55" width="5.86" height="5.86"/><rect x="173.28" y="173.28" width="5.86" height="5.86"/><rect x="173.28" y="179.14" width="5.86" height="5.86"/><rect x="179.14" y="15" width="5.86" height="5.86"/><rect x="179.14" y="20.86" width="5.86" height="5.86"/><rect x="179.14" y="26.72" width="5.86" height="5.86"/><rect x="179.14" y="32.59" width="5.86" height="5.86"/><rect x="179.14" y="38.45" width="5.86" height="5.86"/><rect x="179.14" y="44.31" width="5.86" height="5.86"/><rect x="179.14" y="50.17" width="5.86" height="5.86"/><rect x="179.14" y="67.76" width="5.86" height="5.86"/><rect x="179.14" y="73.62" width="5.86" height="5.86"/><rect x="179.14" y="85.34" width="5.86" height="5.86"/><rect x="179.14" y="91.21" width="5.86" height="5.86"/><rect x="179.14" y="97.07" width="5.86" height="5.86"/><rect x="179.14" y="108.79" width="5.86" height="5.86"/><rect x="179.14" y="114.66" width="5.86" height="5.86"/><rect x="179.14" y="120.52" width="5.86" height="5.86"/><rect x="179.14" y="138.1" width="5.86" height="5.86"/><rect x="179.14" y="143.97" width="5.86" height="5.86"/><rect x="179.14" y="161.55" width="5.86" height="5.86"/><rect x="179.14" y="167.41" width="5.86" height="5.86"/><rect x="179.14" y="179.14" width="5.86" height="5.86"/></svg>