<svg id="图层_1" data-name="图层 1" xmlns="http://www.w3.org/2000/svg" viewBox="0 0 120 24"><title>star</title><path d="M12,17.74,5.81,21.49l1.64-7L2,9.73l7.17-.61L12,2.51l2.81,6.61L22,9.73l-5.44,4.73,1.64,7Z" style="fill:#ccc"/><path d="M36,17.74l-6.19,3.75,1.64-7L26,9.73l7.17-.61L36,2.51l2.81,6.61L46,9.73l-5.44,4.73,1.64,7Z" style="fill:#ccc"/><path d="M60,17.74l-6.19,3.75,1.64-7L50,9.73l7.17-.61L60,2.51l2.81,6.61L70,9.73l-5.44,4.73,1.64,7Z" style="fill:#ccc"/><path d="M84,17.74l-6.19,3.75,1.64-7L74,9.73l7.17-.61L84,2.51l2.81,6.61L94,9.73l-5.44,4.73,1.64,7Z" style="fill:#ccc"/><path d="M108,17.74l-6.19,3.75,1.64-7L98,9.73l7.17-.61L108,2.51l2.81,6.61,7.17.61-5.44,4.73,1.64,7Z" style="fill:#ccc"/></svg>